{
    "accessors" : [
        {
            "bufferView" : 0,
            "componentType" : 5126,
            "count" : 24,
            "max" : [
                1,
                1,
                1
            ],
            "min" : [
                -1,
                -1,
                -1
            ],
            "type" : "VEC3"
        },
        {
            "bufferView" : 1,
            "componentType" : 5126,
            "count" : 24,
            "type" : "VEC3"
        },
        {
            "bufferView" : 2,
            "componentType" : 5126,
            "count" : 24,
            "type" : "VEC2"
        },
        {
            "bufferView" : 3,
            "componentType" : 5121,
            "count" : 36,
            "type" : "SCALAR"
        },
        {
            "bufferView" : 4,
            "componentType" : 5126,
            "count" : 24,
            "max" : [
                1,
                1,
                1
            ],
            "min" : [
                -1,
                -1,
                -1
            ],
            "type" : "VEC3"
        },
        {
            "bufferView" : 5,
            "componentType" : 5126,
            "count" : 24,
            "type" : "VEC3"
        },
        {
            "bufferView" : 6,
            "componentType" : 5126,
            "count" : 24,
            "type" : "VEC2"
        },
        {
            "bufferView" : 7,
            "componentType" : 5121,
            "count" : 36,
            "type" : "SCALAR"
        },
        {
            "bufferView" : 8,
            "componentType" : 5126,
            "count" : 24,
            "max" : [
                1,
                1,
                1
            ],
            "min" : [
                -1,
                -1,
                -1
            ],
            "type" : "VEC3"
        },
        {
            "bufferView" : 9,
            "componentType" : 5126,
            "count" : 24,
            "type" : "VEC3"
        },
        {
            "bufferView" : 10,
            "componentType" : 5126,
            "count" : 24,
            "type" : "VEC2"
        },
        {
            "bufferView" : 11,
            "componentType" : 5121,
            "count" : 36,
            "type" : "SCALAR"
        },
        {
            "bufferView" : 12,
            "componentType" : 5126,
            "count" : 24,
            "max" : [
                1,
                1,
                1
            ],
            "min" : [
                -1,
                -1,
                -1
            ],
            "type" : "VEC3"
        },
        {
            "bufferView" : 13,
            "componentType" : 5126,
            "count" : 24,
            "type" : "VEC3"
        },
        {
            "bufferView" : 14,
            "componentType" : 5126,
            "count" : 24,
            "type" : "VEC2"
        },
        {
            "bufferView" : 15,
            "componentType" : 5121,
            "count" : 36,
            "type" : "SCALAR"
        }
    ],
    "asset" : {
        "generator" : "Khronos Blender glTF 2.0 I/O",
        "version" : "2.0"
    },
    "bufferViews" : [
        {
            "buffer" : 0,
            "byteLength" : 288,
            "byteOffset" : 0
        },
        {
            "buffer" : 0,
            "byteLength" : 288,
            "byteOffset" : 288
        },
        {
            "buffer" : 0,
            "byteLength" : 192,
            "byteOffset" : 576
        },
        {
            "buffer" : 0,
            "byteLength" : 36,
            "byteOffset" : 768
        },
        {
            "buffer" : 0,
            "byteLength" : 288,
            "byteOffset" : 804
        },
        {
            "buffer" : 0,
            "byteLength" : 288,
            "byteOffset" : 1092
        },
        {
            "buffer" : 0,
            "byteLength" : 192,
            "byteOffset" : 1380
        },
        {
            "buffer" : 0,
            "byteLength" : 36,
            "byteOffset" : 1572
        },
        {
            "buffer" : 0,
            "byteLength" : 288,
            "byteOffset" : 1608
        },
        {
            "buffer" : 0,
            "byteLength" : 288,
            "byteOffset" : 1896
        },
        {
            "buffer" : 0,
            "byteLength" : 192,
            "byteOffset" : 2184
        },
        {
            "buffer" : 0,
            "byteLength" : 36,
            "byteOffset" : 2376
        },
        {
            "buffer" : 0,
            "byteLength" : 288,
            "byteOffset" : 2412
        },
        {
            "buffer" : 0,
            "byteLength" : 288,
            "byteOffset" : 2700
        },
        {
            "buffer" : 0,
            "byteLength" : 192,
            "byteOffset" : 2988
        },
        {
            "buffer" : 0,
            "byteLength" : 36,
            "byteOffset" : 3180
        }
    ],
    "buffers" : [
        {
            "byteLength" : 3216,
            "uri" : "light.bin"
        }
    ],
    "extensions" : {},
    "meshes" : [
        {
            "name" : "Cube",
            "primitives" : [
                {
                    "attributes" : {
                        "NORMAL" : 1,
                        "POSITION" : 0,
                        "TEXCOORD_0" : 2
                    },
                    "indices" : 3
                }
            ]
        },
        {
            "name" : "Cube.001",
            "primitives" : [
                {
                    "attributes" : {
                        "NORMAL" : 5,
                        "POSITION" : 4,
                        "TEXCOORD_0" : 6
                    },
                    "indices" : 7
                }
            ]
        },
        {
            "name" : "Cube.002",
            "primitives" : [
                {
                    "attributes" : {
                        "NORMAL" : 9,
                        "POSITION" : 8,
                        "TEXCOORD_0" : 10
                    },
                    "indices" : 11
                }
            ]
        },
        {
            "name" : "Cube.003",
            "primitives" : [
                {
                    "attributes" : {
                        "NORMAL" : 13,
                        "POSITION" : 12,
                        "TEXCOORD_0" : 14
                    },
                    "indices" : 15
                }
            ]
        }
    ],
    "nodes" : [
        {
            "mesh" : 0,
            "name" : "light_direction_ffffff_1_p1",
            "scale" : [
                0.10000002384185791,
                0.10000002384185791,
                0.10000002384185791
            ],
            "translation" : [
                10.786370277404785,
                4.518400192260742,
                2.721680164337158
            ]
        },
        {
            "mesh" : 1,
            "name" : "light_direction_ffffff_1_p2",
            "scale" : [
                0.10000002384185791,
                0.10000002384185791,
                0.10000002384185791
            ],
            "translation" : [
                3.1907997131347656,
                0.3228323459625244,
                2.721680164337158
            ]
        },
        {
            "mesh" : 2,
            "name" : "position_start",
            "scale" : [
                0.10000002384185791,
                0.10000002384185791,
                0.10000002384185791
            ],
            "translation" : [
                3.2596144676208496,
                0.10000050067901611,
                3.871692419052124
            ]
        },
        {
            "mesh" : 3,
            "name" : "light_rectarea_ffffff_1",
            "rotation" : [
                1,
                0,
                0,
                0
            ],
            "scale" : [
                -1.6097265481948853,
                -0.016450468450784683,
                -0.10000002384185791
            ],
            "translation" : [
                1.6147851943969727,
                1.7835501432418823,
                0.2679494619369507
            ]
        }
    ],
    "scene" : 0,
    "scenes" : [
        {
            "name" : "Scene",
            "nodes" : [
                0,
                1,
                2,
                3
            ]
        }
    ]
}
